{
  "accessors": [
    {
      "bufferView": 2,
      "componentType": 5126,
      "count": 12086,
      "max": [
        31.19873046875,
        92.98342895507813,
        42.30826950073242
      ],
      "min": [
        -29.442970275878906,
        30.0050106048584,
        -2.4430220127105713
      ],
      "type": "VEC3"
    },
    {
      "bufferView": 2,
      "byteOffset": 145032,
      "componentType": 5126,
      "count": 12086,
      "max": [
        0.9999238848686218,
        0.9999703168869019,
        0.9999807476997375
      ],
      "min": [
        -0.9999217987060547,
        -0.9999144077301025,
        -0.9999868273735046
      ],
      "type": "VEC3"
    },
    {
      "bufferView": 1,
      "componentType": 5126,
      "count": 12086,
      "max": [
        0.9926359057426453,
        0.9994999766349792
      ],
      "min": [
        0.0005000000237487257,
        0.0005000000237487257
      ],
      "type": "VEC2"
    },
    {
      "bufferView": 1,
      "byteOffset": 96688,
      "componentType": 5126,
      "count": 12086,
      "max": [
        4.540360927581787,
        5.955132961273193
      ],
      "min": [
        -3.0072429180145264,
        0.009999999776482582
      ],
      "type": "VEC2"
    },
    {
      "bufferView": 0,
      "componentType": 5125,
      "count": 59838,
      "type": "SCALAR"
    },
    {
      "bufferView": 2,
      "byteOffset": 290064,
      "componentType": 5126,
      "count": 384,
      "max": [
        27.276580810546875,
        80.47142028808594,
        -1.594385027885437
      ],
      "min": [
        -26.36488914489746,
        31.3647403717041,
        -44.268089294433594
      ],
      "type": "VEC3"
    },
    {
      "bufferView": 2,
      "byteOffset": 294672,
      "componentType": 5126,
      "count": 384,
      "max": [
        0.9895738959312439,
        0.9887015223503113,
        0.23459839820861816
      ],
      "min": [
        -0.9895738959312439,
        -0.9863334894180298,
        -1.0
      ],
      "type": "VEC3"
    },
    {
      "bufferView": 1,
      "byteOffset": 193376,
      "componentType": 5126,
      "count": 384,
      "max": [
        0.993493914604187,
        0.5783177018165588
      ],
      "min": [
        0.0005000020028091967,
        0.0005000000237487257
      ],
      "type": "VEC2"
    },
    {
      "bufferView": 1,
      "byteOffset": 196448,
      "componentType": 5126,
      "count": 384,
      "max": [
        5.470329966783538e-08,
        0.7835053205490112
      ],
      "min": [
        -1.0,
        -0.019633589312434196
      ],
      "type": "VEC2"
    },
    {
      "bufferView": 0,
      "byteOffset": 239352,
      "componentType": 5125,
      "count": 1188,
      "type": "SCALAR"
    },
    {
      "bufferView": 2,
      "byteOffset": 299280,
      "componentType": 5126,
      "count": 4,
      "max": [
        167.02890014648438,
        167.02890014648438,
        0.0
      ],
      "min": [
        -167.02890014648438,
        -167.02890014648438,
        0.0
      ],
      "type": "VEC3"
    },
    {
      "bufferView": 2,
      "byteOffset": 299328,
      "componentType": 5126,
      "count": 4,
      "max": [
        0.0,
        0.0,
        1.0
      ],
      "min": [
        0.0,
        0.0,
        1.0
      ],
      "type": "VEC3"
    },
    {
      "bufferView": 1,
      "byteOffset": 199520,
      "componentType": 5126,
      "count": 4,
      "max": [
        1.0,
        1.0
      ],
      "min": [
        2.98022992950564e-08,
        2.98022992950564e-08
      ],
      "type": "VEC2"
    },
    {
      "bufferView": 0,
      "byteOffset": 244104,
      "componentType": 5125,
      "count": 6,
      "type": "SCALAR"
    }
  ],
  "asset": {
    "extras": {
      "author": "MADE.COM (https://sketchfab.com/made-it)",
      "license": "CC-BY-NC-4.0 (http://creativecommons.org/licenses/by-nc/4.0/)",
      "source": "https://sketchfab.com/3d-models/lule-high-back-carver-dining-chairs-pine-green-6d202b6646a74908add5d8372a1f4716",
      "title": "Lule High Back Carver Dining Chairs, Pine Green"
    },
    "generator": "Sketchfab-12.68.0",
    "version": "2.0"
  },
  "bufferViews": [
    {
      "buffer": 0,
      "byteLength": 244128,
      "name": "floatBufferViews",
      "target": 34963
    },
    {
      "buffer": 0,
      "byteLength": 199552,
      "byteOffset": 244128,
      "byteStride": 8,
      "name": "floatBufferViews",
      "target": 34962
    },
    {
      "buffer": 0,
      "byteLength": 299376,
      "byteOffset": 443680,
      "byteStride": 12,
      "name": "floatBufferViews",
      "target": 34962
    }
  ],
  "buffers": [
    {
      "byteLength": 743056,
      "uri": "scene.bin"
    }
  ],
  "images": [
    {
      "uri": "textures/FLOOR_baseColor.png"
    },
    {
      "uri": "textures/SEAT_baseColor.jpeg"
    },
    {
      "uri": "textures/SEAT_metallicRoughness.png"
    }
  ],
  "materials": [
    {
      "alphaMode": "BLEND",
      "doubleSided": true,
      "name": "FLOOR",
      "pbrMetallicRoughness": {
        "baseColorFactor": [
          0.0,
          0.0,
          0.0,
          1.0
        ],
        "baseColorTexture": {
          "index": 0
        },
        "metallicFactor": 0.0
      }
    },
    {
      "doubleSided": true,
      "name": "SEAT",
      "occlusionTexture": {
        "index": 2
      },
      "pbrMetallicRoughness": {
        "baseColorTexture": {
          "index": 1
        },
        "metallicFactor": 0.1480564024,
        "metallicRoughnessTexture": {
          "index": 2
        }
      }
    },
    {
      "doubleSided": true,
      "emissiveFactor": [
        1.0,
        1.0,
        1.0
      ],
      "emissiveTexture": {
        "index": 1
      },
      "name": "EnvironmentAmbientLight",
      "pbrMetallicRoughness": {
        "baseColorTexture": {
          "index": 1
        },
        "metallicFactor": 0.5078125,
        "roughnessFactor": 0.4773246951
      }
    }
  ],
  "meshes": [
    {
      "name": "SEAT",
      "primitives": [
        {
          "attributes": {
            "NORMAL": 1,
            "POSITION": 0,
            "TEXCOORD_0": 2,
            "TEXCOORD_1": 3
          },
          "indices": 4,
          "material": 1,
          "mode": 4
        }
      ]
    },
    {
      "name": "LEGS",
      "primitives": [
        {
          "attributes": {
            "NORMAL": 6,
            "POSITION": 5,
            "TEXCOORD_0": 7,
            "TEXCOORD_1": 8
          },
          "indices": 9,
          "material": 2,
          "mode": 4
        }
      ]
    },
    {
      "name": "FLOOR",
      "primitives": [
        {
          "attributes": {
            "NORMAL": 11,
            "POSITION": 10,
            "TEXCOORD_0": 12
          },
          "indices": 13,
          "material": 0,
          "mode": 4
        }
      ]
    }
  ],
  "nodes": [
    {
      "children": [
        1
      ],
      "matrix": [
        1.0,
        0.0,
        0.0,
        0.0,
        0.0,
        2.220446049250313e-16,
        -1.0,
        0.0,
        0.0,
        1.0,
        2.220446049250313e-16,
        0.0,
        0.0,
        0.0,
        0.0,
        1.0
      ],
      "name": "Sketchfab_model"
    },
    {
      "children": [
        2,
        6,
        8
      ],
      "name": "Collada visual scene group"
    },
    {
      "children": [
        3
      ],
      "matrix": [
        1.0,
        0.0,
        0.0,
        0.0,
        0.0,
        1.0,
        0.0,
        0.0,
        0.0,
        0.0,
        1.0,
        0.0,
        0.0,
        -1.3305999857493589e-08,
        0.30440521240234375,
        1.0
      ],
      "name": "Set_of_2_Lule_High_Back_Carver_Chairs_EmeraldGreen_and_HailGrey"
    },
    {
      "children": [
        4,
        5
      ],
      "matrix": [
        1.0,
        0.0,
        0.0,
        0.0,
        0.0,
        1.0,
        0.0,
        0.0,
        0.0,
        0.0,
        1.0,
        0.0,
        -0.8778849,
        -61.49422,
        44.2681,
        1.0
      ],
      "name": "Object_3"
    },
    {
      "mesh": 0,
      "name": "SEAT"
    },
    {
      "mesh": 1,
      "name": "LEGS"
    },
    {
      "children": [
        7
      ],
      "name": "Plane001"
    },
    {
      "mesh": 2,
      "name": "FLOOR"
    },
    {
      "children": [
        9
      ],
      "name": "EnvironmentAmbientLight"
    },
    {
      "name": "EnvironmentAmbientLight"
    }
  ],
  "samplers": [
    {
      "magFilter": 9729,
      "minFilter": 9987,
      "wrapS": 10497,
      "wrapT": 10497
    }
  ],
  "scene": 0,
  "scenes": [
    {
      "name": "Sketchfab_Scene",
      "nodes": [
        0
      ]
    }
  ],
  "textures": [
    {
      "sampler": 0,
      "source": 0
    },
    {
      "sampler": 0,
      "source": 1
    },
    {
      "sampler": 0,
      "source": 2
    }
  ]
}
